HIERARCHY
ROOT Hips
{
  OFFSET 90.0699 94.1611 -346.847
  CHANNELS 6 Xposition Yposition Zposition Zrotation Xrotation Yrotation
  JOINT RightUpLeg
  {
    OFFSET -8.9458 -8.66707 0.101652
    CHANNELS 3 Zrotation Xrotation Yrotation
    JOINT RightLeg
    {
      OFFSET 0 -44.4227 1.3727
      CHANNELS 3 Zrotation Xrotation Yrotation
      JOINT RightFoot
      {
        OFFSET 0.253549 -42.0924 -1.46059
        CHANNELS 3 Zrotation Xrotation Yrotation
        JOINT RightToes
        {
          OFFSET 0.04 -4.41509 8.4991
          CHANNELS 3 Zrotation Xrotation Yrotation
          End Site
          {
            OFFSET -0.08 -0.137448 9.77979
          }
        }
      }
    }
  }
  JOINT Spine
  {
    OFFSET 0 11.8905 0
    CHANNELS 3 Zrotation Xrotation Yrotation
    JOINT Spine1
    {
      OFFSET 0 25.6574 0.127663
      CHANNELS 3 Zrotation Xrotation Yrotation
      JOINT HEad
      {
        OFFSET 0 8.73416 0.011341
        CHANNELS 3 Zrotation Xrotation Yrotation
        End Site
        {
          OFFSET -0.29 12.7742 2.51395
        }
      }
      JOINT LeftShoulder1
      {
        OFFSET 8.99 -0.362252 -0.22
        CHANNELS 3 Zrotation Xrotation Yrotation
        JOINT LeftArm
        {
          OFFSET 10.2827 -0.00338 0.322123
          CHANNELS 3 Zrotation Xrotation Yrotation
          JOINT LeftForeArm
          {
            OFFSET 32.7669 0.099144 -1.42434
            CHANNELS 3 Zrotation Xrotation Yrotation
            JOINT LeftHand
            {
              OFFSET 27.5643 0.085362 1.02216
              CHANNELS 3 Zrotation Xrotation Yrotation
              End Site
              {
                OFFSET 16.7443 -0.6 1.50291
              }
            }
          }
        }
      }
      JOINT RightShoulder
      {
        OFFSET -8.99 -0.362252 -0.22
        CHANNELS 3 Zrotation Xrotation Yrotation
        JOINT RightArm
        {
          OFFSET -10.2827 -0.00338 0.322123
          CHANNELS 3 Zrotation Xrotation Yrotation
          JOINT RightForeArm
          {
            OFFSET -32.8971 0.099144 -1.42434
            CHANNELS 3 Zrotation Xrotation Yrotation
            JOINT RightHand
            {
              OFFSET -27.4921 0.085362 1.02216
              CHANNELS 3 Zrotation Xrotation Yrotation
              End Site
              {
                OFFSET -16.6312 -0.6 1.50291
              }
            }
          }
        }
      }
    }
  }
  JOINT LeftUpLeg
  {
    OFFSET 8.9458 -8.66707 0.101652
    CHANNELS 3 Zrotation Xrotation Yrotation
    JOINT LeftLeg
    {
      OFFSET 0 -44.4227 1.3727
      CHANNELS 3 Zrotation Xrotation Yrotation
      JOINT LeftFoot
      {
        OFFSET -0.253549 -42.0924 -1.46059
        CHANNELS 3 Zrotation Xrotation Yrotation
        JOINT LeftToes
        {
          OFFSET -0.04 -4.41509 8.4991
          CHANNELS 3 Zrotation Xrotation Yrotation
          End Site
          {
            OFFSET 0.08 -0.047448 9.77979
          }
        }
      }
    }
  }
}
MOTION
Frames:	17
Frame Time:	0.0166667
89.1096 93.4949 -347.757 -2.20699 -18.1044 1.07357 -19.95 -0.449817 9.32145 34.9849 47.2095 -37.6913 -31.6906 2.228 -1.12852 0.0462048 0.000533403 0.662642 2.86243 25.6135 -5.00394 0.00924527 -1.82229e-007 0.0031131 4.36172 1.55316 12.1302 1.98785e-016 1.59028e-015 -3.97569e-016 -138.262 -64.4705 -110.482 -63.6636 55.8787 -46.8073 17.635 14.0934 -17.5203 13.2514 10.8665 0.827723 109.178 -11.5376 74.6036 15.5667 54.6012 98.8164 18.1502 24.5501 -1.36423 22.3099 -13.6056 -9.19842 -33.5135 26.2284 60.0894 -4.81199 -3.27942 -0.712133 -1.70302e-008 1.55986e-007 -4.8394e-009 
90.0699 94.1611 -346.847 -2.06934 -18.1231 0.898478 -20.0266 -0.221812 10.0692 35.1861 46.6016 -37.5933 -31.196 2.15745 -1.14065 0.0462048 0.000533403 0.662642 2.04361 25.2094 -5.00575 0.00924527 -1.82229e-007 0.0031131 5.25939 1.71042 11.3912 -1.98785e-016 -1.59028e-015 -3.97569e-016 -132.126 -62.6212 -105.948 -63.3218 55.3374 -48.1774 13.3928 10.9188 -21.1763 13.3994 10.7781 1.87112 109.714 -13.2315 77.2711 14.8294 53.131 97.0017 17.7255 25.4546 -0.916257 21.3114 -12.557 -6.97332 -33.117 26.4122 59.544 -3.34559 -3.27507 -0.603188 -1.70302e-008 1.55986e-007 -4.83939e-009 
90.9515 94.7398 -345.978 -1.94684 -18.1126 0.741115 -20.2061 0.377526 10.747 35.0845 45.6687 -36.73 -30.6089 2.05458 -1.15956 0.0462048 0.000533403 0.662642 1.22189 24.6406 -4.86463 0.00924527 -1.82229e-007 0.0031131 6.20777 1.94785 10.0201 3.47873e-016 -1.59028e-015 -7.95139e-016 -125.264 -59.6369 -101.221 -63.5583 54.5838 -49.2876 8.77005 7.68196 -25.0275 13.6751 10.6584 2.94014 110.455 -15.2819 81.0291 15.8702 51.8768 93.1903 17.163 24.9218 0.111717 20.3128 -11.2873 -4.66955 -32.4371 26.045 58.93 -1.52394 -3.30504 -0.473122 -1.70302e-008 1.55986e-007 -4.8394e-009 
91.7522 95.2808 -345.177 -1.95447 -18.1319 0.762446 -20.4748 1.1944 11.0013 36.666 44.6966 -35.5178 -31.0694 2.11945 -1.20928 0.0462048 0.000533403 0.662642 0.620979 23.6346 -4.42943 0.00924527 -1.82229e-007 0.0031131 7.2688 2.56475 6.59118 9.93923e-017 -1.59028e-015 3.97569e-016 -116.578 -53.3948 -95.9312 -65.6103 53.0449 -49.3171 16.5014 15.6957 -16.1223 15.6353 4.59171 13.8485 110.748 -30.3979 85.7118 22.8088 50.9922 83.7842 16.5263 21.6898 1.72337 19.0555 -9.26993 -2.42206 -31.7232 23.5302 58.4416 2.04855 -3.55914 -0.262415 -1.70302e-008 1.55986e-007 -4.8394e-009 
92.3951 95.7507 -344.445 -2.09885 -18.2198 0.971675 -20.8383 1.36451 9.94661 39.038 45.2502 -33.2633 -32.0174 2.22642 -1.28172 0.0462048 0.000533403 0.662642 0.246729 22.3415 -3.73554 0.00924528 0.00841973 0.00311174 8.43211 3.59929 1.31389 -4.22417e-016 7.95139e-016 -3.97569e-016 -108.897 -44.8814 -91.933 -68.4246 50.4337 -48.8729 8.23122 5.68504 -23.7208 16.9047 5.76578 13.0307 111.5 -31.9306 90.61 26.9129 50.3472 77.9117 16.0934 21.5389 1.87401 18.3229 -7.40557 -0.547636 -30.7001 21.5698 57.5692 4.77474 -3.77706 -0.0941951 -1.70302e-008 1.55986e-007 -4.8394e-009 
92.8342 95.4969 -342.311 -0.654172 -17.8761 4.73827 -22.1247 -0.243791 8.43483 42.6836 49.1724 -32.8682 -28.4952 1.3842 -2.62089 0.0462048 0.000533403 0.662642 0.294749 21.3561 -4.59024 -1.13147 -0.390208 -0.0113282 9.56368 4.82974 -4.11674 -1.19038e-015 -7.95139e-016 -2.48481e-017 -104.016 -38.8363 -89.133 -69.141 48.2417 -49.2894 15.1458 9.27956 -15.919 18.4008 7.06561 11.7154 111.718 -33.2167 93.5572 29.3171 49.8261 74.0985 15.5909 19.9516 2.56301 16.2726 -7.63322 0.0481148 -30.3845 23.234 56.5443 5.88406 -5.91334 -0.641148 -1.70302e-008 1.55986e-007 -4.83939e-009 
93.1143 95.2634 -340.159 -0.142384 -18.1752 9.74458 -22.9454 -1.75148 4.94426 48.4838 55.259 -35.3845 -19.1503 0.148637 -3.44121 0.0462048 0.000533403 0.662642 1.6901 20.9956 -6.80012 -2.27242 -0.791775 -0.0467132 10.6995 6.20382 -9.60614 -3.23025e-016 3.97569e-016 -7.95139e-016 -100.66 -34.2938 -86.4417 -69.1732 46.7177 -49.8367 14.4848 12.7748 -17.017 20.0717 8.38011 9.81826 111.467 -34.3444 95.0922 30.6671 49.3275 71.5848 15.4139 20.2567 2.68039 15.3312 -7.8512 -1.25516 -30.1662 25.1674 55.5616 6.64537 -8.1121 -1.21108 -1.70302e-008 1.55986e-007 -4.8394e-009 
93.2711 95.0036 -337.948 0.598072 -18.1741 14.398 -24.0201 -4.63121 0.623279 56.6928 62.6921 -40.7993 -11.9646 -0.58293 -4.08017 0.0462048 0.000533403 0.662642 2.48234 20.3643 -8.35862 -3.41379 -1.1941 -0.0988004 11.8897 7.697 -15.0578 -5.46658e-016 0 1.59028e-015 -98.2707 -30.6278 -83.5971 -68.8091 45.5632 -50.322 17.9526 13.8941 -14.0307 21.9195 9.59719 7.37044 110.794 -35.4259 95.5836 31.3662 48.7998 69.9881 15.3497 19.7739 3.22281 14.5552 -8.4389 -2.37446 -30.3897 27.4337 54.8776 7.19351 -10.4883 -1.79573 -1.70302e-008 1.55986e-007 -4.8394e-009 
93.3315 94.7578 -335.644 1.51989 -17.9614 18.7453 -26.0767 -8.79241 -4.32165 71.4424 70.4757 -52.8153 -2.78197 -1.38661 -4.24808 0.0462048 0.000533403 0.662642 2.72984 19.5817 -9.40932 -4.55573 -1.59553 -0.16663 13.1744 9.30785 -20.3912 2.98177e-016 1.98785e-016 -0 -96.514 -27.477 -80.4906 -68.3496 44.8236 -50.75 16.9524 15.1839 -15.5366 23.9947 10.6696 4.49713 109.728 -36.5795 95.3315 31.6765 48.264 69.0762 15.4659 20.2847 3.46836 13.763 -9.162 -3.44597 -30.8862 29.9066 54.4316 7.54685 -12.9132 -2.36729 -1.70302e-008 1.55986e-007 -4.8394e-009 
93.3396 94.547 -333.268 2.59131 -17.6164 22.8266 -29.5798 -13.7175 -9.72434 96.3257 75.8008 -73.5411 5.11688 -2.33893 -4.25703 0.0462048 0.000533403 0.662642 2.50914 18.7348 -10.0737 -5.69839 -1.9952 -0.249795 14.5831 11.0379 -25.5432 -1.98785e-015 3.97569e-016 -1.59028e-015 -95.1709 -24.6441 -77.1592 -67.7936 44.3339 -51.1687 18.7232 15.5167 -14.486 26.2896 11.5788 1.33479 108.355 -37.8713 94.5735 31.7802 47.7618 68.7056 15.6644 20.2327 3.95874 12.7998 -9.80731 -4.53185 -31.3754 32.5111 54.1002 7.681 -15.2609 -2.92191 -1.70302e-008 1.55986e-007 -4.8394e-009 
93.3085 94.3155 -330.86 3.79478 -17.206 26.6737 -34.8499 -19.0646 -15.6342 131.364 77.0179 -103.779 11.8435 -3.14362 -3.93236 0.0462048 0.000533403 0.662642 1.90833 17.8868 -10.4396 -6.8419 -2.39277 -0.347985 16.1293 12.8816 -30.4731 -1.78906e-015 0 -0 -94.0934 -22.0498 -73.6495 -67.2456 44.1025 -51.6268 17.8132 16.1577 -15.7753 28.7801 12.3444 -1.9856 106.774 -39.3225 93.5199 31.801 47.3357 68.7425 15.9405 20.6171 4.23512 11.5996 -10.318 -5.65333 -31.6782 35.3313 53.8505 7.52333 -17.4993 -3.48011 -1.70302e-008 1.55986e-007 -4.8394e-009 
93.3005 94.1247 -328.494 5.11772 -16.7848 30.3074 -41.9883 -24.7463 -22.7786 156.784 74.6888 -125.664 11.926 -3.02093 -4.28787 0.0462048 0.000533403 0.662642 1.03255 17.0852 -10.5623 -7.98638 -2.78733 -0.460816 17.8084 14.8207 -35.1581 -1.59028e-015 1.59028e-015 -3.18055e-015 -93.1852 -19.6793 -70.0526 -66.7089 44.0245 -52.1136 18.636 16.4295 -15.3465 31.4503 13.0096 -5.36516 105.078 -40.9146 92.3536 31.8201 47.0136 69.0659 16.2296 20.5432 4.60913 10.0609 -10.4864 -6.78291 -31.3831 38.1128 53.4112 7.13205 -19.4696 -4.04562 -1.70302e-008 1.55986e-007 -4.83938e-009 
93.3071 93.9067 -326.233 6.72348 -18.0674 34.7088 -49.999 -28.3643 -29.6066 171.131 71.7603 -137.756 15.234 -2.8502 -4.44285 0.0462048 0.000533403 0.662642 0.621034 18.1952 -10.8446 -9.13198 -3.1779 -0.588568 19.5949 16.8098 -39.5828 -3.97569e-016 0 -0 -92.3916 -17.5537 -66.4631 -66.2646 44.0987 -52.5792 17.8256 16.9703 -16.0624 34.2678 13.6019 -8.70569 103.376 -42.6067 91.2322 31.8683 46.8108 69.545 16.4936 20.6163 4.80469 9.25628 -9.12167 -8.59705 -31.1123 40.9618 52.8961 6.79854 -21.4097 -4.80908 -1.70302e-008 1.55986e-007 -4.8394e-009 
93.3696 93.7041 -324.105 8.76845 -20.7279 39.6799 -57.9592 -30.4201 -35.5332 -179.892 69.3452 -145.535 17.3978 -2.30786 -4.93282 0.0462048 0.000533403 0.662642 0.683938 20.8881 -10.8968 -10.2767 -3.56326 -0.730559 21.4486 18.7946 -43.7315 8.82781e-032 1.59028e-015 -3.18055e-015 -91.6828 -15.7003 -63.0034 -65.9271 44.2369 -52.9395 18.0956 17.3245 -15.649 37.1489 14.1198 -11.9295 101.782 -44.3221 90.2553 31.9295 46.7263 70.063 16.696 20.4173 5.03474 9.36343 -6.41899 -10.656 -30.7452 43.7459 52.1918 6.57078 -23.2787 -5.78579 -1.70302e-008 1.55986e-007 -4.8394e-009 
93.4627 93.3891 -322.04 11.0222 -22.6302 44.4023 -67.5419 -32.1608 -41.2821 -174.087 68.0933 -150.896 20.5423 -1.38504 -5.56458 0.0462048 0.000533403 0.662642 1.03838 24.0219 -10.2794 -11.3935 -3.85802 -0.84617 23.1104 20.6682 -46.513 7.95139e-016 0 -3.18055e-015 -91.7193 -13.7888 -61.0126 -65.7665 44.4415 -53.1583 17.4529 17.732 -16.0933 39.3754 13.3073 -14.5169 100.349 -45.9195 89.3261 31.9866 46.7346 70.5868 16.7997 20.5338 5.25416 8.78722 -4.14725 -13.4867 -30.2142 46.1627 52.5632 5.99244 -24.8134 -6.78124 -1.70302e-008 1.55986e-007 -4.83939e-009 
93.6559 93.1073 -320.071 13.4392 -23.8627 48.8713 -78.0165 -33.6441 -47.5765 -170.872 68.896 -155.092 14.1335 0.683085 -6.95903 0.0462048 0.000533403 0.662642 1.48444 27.505 -9.28464 -12.551 -4.23923 -1.0346 24.4567 21.5524 -48.734 1.59028e-015 -1.59028e-015 6.36111e-015 -92.2048 -12.1382 -60.1102 -65.7924 44.6775 -53.2394 17.5576 17.8796 -16.2526 40.7494 11.6408 -16.3117 99.1149 -47.3566 88.308 32.0251 46.7622 71.12 16.7861 20.8289 5.67273 7.99422 -1.78148 -15.7601 -28.7565 48.1561 52.212 5.39158 -25.8569 -7.82606 -1.70302e-008 1.55986e-007 -4.8394e-009 
93.8061 92.7219 -318.095 15.968 -24.4997 53.085 -88.4657 -33.5437 -51.3539 -170.059 73.4901 -158.051 16.7611 2.59756 -8.60232 0.0462048 0.000533403 0.662642 1.34165 30.1303 -8.22618 -13.7383 -4.71387 -1.26245 25.9868 22.8414 -50.7773 -6.36111e-015 3.18055e-015 -0 -92.4885 -10.9338 -58.9428 -65.999 44.9275 -53.1973 17.1238 18.0082 -17.0313 41.7008 10.3184 -18.0043 98.0921 -48.6202 87.2479 32.0233 46.7378 71.6433 16.6864 21.3511 6.09868 7.20501 0.433509 -17.6651 -27.188 50.0016 51.6719 4.82362 -26.6425 -8.88929 -1.70302e-008 1.55986e-007 -4.83939e-009 
